<svg xmlns="http://www.w3.org/2000/svg" width="512" height="512" viewBox="0 0 512 512" version="1.1">
	<path d="M 216.814 11.010 C 191.297 15.060, 169.279 27.140, 140.476 52.892 C 126.844 65.081, 117.993 75.804, 112.932 86.266 C 105.042 102.576, 105.295 116.009, 113.932 139.325 C 120.209 156.269, 121.390 161.551, 120.733 169.737 C 119.561 184.333, 106.174 195.012, 89.068 194.994 C 79.340 194.985, 72.032 191.647, 67.880 185.317 C 66.328 182.951, 66.005 182.822, 65.425 184.334 C 64.393 187.023, 67.815 194.724, 71.731 198.528 C 74.987 201.690, 84.105 206, 87.538 206 C 89.969 206, 89.271 207.017, 82.721 213.018 C 78.778 216.632, 75.337 220.953, 73.471 224.636 C 70.765 229.976, 70.500 231.393, 70.500 240.500 C 70.500 249.672, 70.741 250.935, 73.409 255.750 C 75.009 258.637, 76.592 261, 76.928 261 C 77.264 261, 77.530 256.163, 77.519 250.250 C 77.502 240.530, 77.754 239.019, 80.150 234.480 C 81.608 231.719, 84.983 227.427, 87.650 224.942 C 92.121 220.776, 103.756 213, 105.518 213 C 105.933 213, 104.160 215.260, 101.577 218.021 C 95.642 224.367, 93.994 228.334, 94.022 236.218 C 94.055 245.730, 99.660 255.705, 107.148 259.577 C 110.491 261.305, 110.467 261.413, 108.377 254.226 C 106.104 246.408, 106.990 238.494, 111.063 230.221 C 113.449 225.374, 117.248 220.619, 125.560 212.076 C 131.755 205.709, 137.106 200.781, 137.452 201.124 C 137.798 201.467, 134.328 205.819, 129.742 210.796 C 119.002 222.449, 115.865 228.150, 115.218 237.191 C 114.324 249.692, 119.367 261.602, 128.505 268.572 C 130.500 270.094, 135.788 272.397, 140.255 273.691 C 144.722 274.985, 148.548 276.214, 148.756 276.423 C 148.965 276.632, 148.430 279.179, 147.568 282.083 C 144.806 291.383, 145.882 300.268, 152.433 322.271 C 157.025 337.695, 157.213 338.734, 155.860 341.262 C 153.781 345.147, 144.851 357.229, 137.946 365.500 C 134.272 369.900, 130.503 374.996, 129.569 376.825 C 125.299 385.187, 125.744 401.355, 130.522 411.454 C 133.886 418.567, 142.286 426.270, 149.169 428.556 C 153.316 429.933, 156.423 430.164, 164.596 429.701 L 174.830 429.122 175.997 434.311 C 178.277 444.442, 181.362 452.652, 187.340 464.500 C 190.669 471.100, 195.668 483.250, 198.447 491.500 L 203.500 506.500 209.500 506.829 C 220.018 507.405, 234 506.010, 234 504.384 C 234 502.454, 226.899 488.368, 220.843 478.286 C 218.129 473.768, 212.569 466.568, 208.488 462.286 C 195.223 448.370, 191.694 437.802, 192.138 413.335 C 192.290 404.945, 192.165 397.831, 191.859 397.525 C 191.553 397.220, 189.647 399.652, 187.624 402.931 C 180.452 414.550, 169.375 421.472, 158 421.443 C 150.082 421.422, 144.840 418.967, 139.571 412.811 C 135.969 408.603, 131.859 397.884, 133.619 397.290 C 136.740 396.235, 141.140 392.630, 142.489 390.022 C 143.361 388.336, 144.647 382.516, 145.347 377.090 C 146.821 365.667, 148.472 362.422, 161.500 345.337 C 174.168 328.724, 173.964 329.187, 173.984 316.905 C 173.996 309.049, 174.511 304.784, 175.975 300.405 C 178.206 293.738, 178.425 292, 177.035 292 C 175.196 292, 168.873 298.328, 166.955 302.087 C 165.896 304.165, 164.544 306.164, 163.951 306.530 C 161.180 308.243, 154 296.315, 154 290 C 154 284.916, 158.272 276.969, 162.568 274.063 C 166.272 271.557, 175.867 269.058, 181.927 269.021 C 183.811 269.009, 190.111 270.557, 195.927 272.461 C 210.147 277.116, 223.242 280.059, 224.478 278.879 C 226.846 276.616, 221.962 273.322, 213.525 271.494 L 210.549 270.849 217.244 264.864 C 225.023 257.911, 226.183 255.098, 224.830 246.470 L 223.912 240.613 228.706 236.657 C 242.549 225.234, 258.259 205.926, 255.751 203.417 C 255.365 203.032, 250.826 206.754, 245.664 211.689 C 234.984 221.899, 225.129 228.768, 216.712 231.868 C 207.155 235.389, 200.270 234.286, 194.882 228.373 C 191.757 224.944, 171.960 195.875, 169.618 191.276 C 167.767 187.643, 162.813 169.854, 163.469 169.198 C 163.703 168.964, 165.104 169.723, 166.582 170.886 C 170.103 173.655, 172.451 173.525, 178.500 170.227 C 182.445 168.075, 183.569 166.899, 183.826 164.653 C 184.103 162.232, 183.055 160.774, 176.826 154.914 C 172.797 151.123, 165.793 145.879, 161.262 143.261 C 151.486 137.611, 150.995 136.681, 150.268 122.429 C 149.737 112.021, 151.187 103.858, 154.330 99.561 C 155.689 97.705, 156.296 97.987, 168.625 106.187 C 185.589 117.471, 196.906 123.774, 211.500 130.065 C 218.100 132.910, 223.892 135.599, 224.371 136.040 C 224.849 136.481, 223.173 137.151, 220.646 137.530 C 214.614 138.435, 195.606 147.928, 195.177 150.250 C 194.588 153.438, 200.203 152.235, 211.089 146.841 C 225.273 139.811, 228.193 139.798, 241 146.703 C 246.225 149.521, 254.662 153.271, 259.750 155.038 C 268.093 157.936, 269 158.496, 269 160.750 C 269 163.356, 269.693 163.423, 276.500 161.476 C 279.172 160.712, 282.513 163.220, 281.688 165.370 C 280.665 168.037, 276.241 169.235, 272.264 167.922 C 270.047 167.191, 268.471 167.129, 267.850 167.750 C 266.219 169.381, 262.971 194.801, 262.729 207.834 C 262.500 220.166, 262.500 220.168, 265.213 222.334 C 271.448 227.313, 285.446 235.383, 295.486 239.787 C 301.397 242.379, 306.293 244.950, 306.367 245.500 C 306.440 246.050, 300.425 248.546, 293 251.047 C 280.059 255.405, 254.790 266.184, 248.500 270.028 C 245.313 271.976, 242 276.755, 242 279.404 C 242 282.131, 245.730 281.209, 254.005 276.437 C 266.262 269.367, 300.140 256, 305.802 256 C 306.505 256, 307 257.447, 307 259.500 C 307 261.425, 307.436 263, 307.969 263 C 308.502 263, 310.467 260.611, 312.335 257.690 C 317.817 249.120, 329.760 243, 341.002 243 C 347.383 243, 355.573 247.286, 359.717 252.794 C 364.040 258.539, 365.671 264.489, 368.133 283.500 C 371.122 306.580, 370.409 328.508, 366.102 346 C 364.409 352.875, 362.319 363.675, 361.457 370 C 360.594 376.325, 357.849 391.850, 355.356 404.500 C 350.752 427.858, 349.080 443.318, 350.872 445.943 C 352.149 447.814, 356.233 446.105, 358.391 442.796 C 360.201 440.022, 368.442 395.375, 371.003 374.470 C 372.016 366.204, 373.759 355.854, 374.877 351.470 C 381.752 324.500, 381.610 296.737, 374.472 272.709 L 372.034 264.500 376.767 260.547 C 388.543 250.713, 399.661 238.402, 403.258 231.211 C 410.162 217.410, 410.784 203.827, 405.167 189.519 C 402.499 182.721, 402.240 181.332, 403.418 180.153 C 404.597 178.974, 405.062 179.166, 406.555 181.444 C 409.623 186.125, 412.145 195.242, 412.721 203.731 C 413.442 214.359, 411.332 223.412, 405.253 235.764 C 402.745 240.859, 400.982 245.315, 401.334 245.667 C 402.488 246.821, 408.821 239.110, 411.950 232.740 C 416.587 223.300, 418.317 213.530, 417.526 201.250 C 416.893 191.422, 416.949 191, 418.882 191 C 423.037 191, 429.056 207.869, 430.568 223.750 C 430.948 227.737, 431.633 231, 432.091 231 C 433.100 231, 434.669 225.309, 435.556 218.430 C 436.932 207.756, 432.175 189.365, 425.387 179.119 C 415.096 163.585, 400.339 152.542, 379 144.404 C 374.325 142.621, 371.175 140.959, 372 140.709 C 372.825 140.460, 376.007 139.526, 379.070 138.634 C 385.905 136.643, 392.907 132.122, 396.546 127.350 C 402.159 119.991, 404.673 108.670, 401.621 104.496 C 400.353 102.763, 400.182 102.970, 399.501 107.055 C 397.867 116.859, 391.638 124.403, 381.106 129.331 C 362.358 138.104, 333.531 130.070, 321.645 112.759 C 319.659 109.866, 317.731 105.925, 317.360 104 L 316.685 100.500 321.869 105.315 C 324.721 107.963, 330.079 111.563, 333.777 113.315 C 339.497 116.025, 341.618 116.497, 348 116.479 C 356.950 116.455, 362.816 114.150, 368.299 108.504 C 371.921 104.774, 373.802 99.533, 372.622 96.458 C 372.152 95.233, 371.363 95.656, 368.906 98.454 C 362.997 105.185, 350.240 106.714, 340.680 101.837 C 335.092 98.986, 327.168 90.674, 323 83.292 C 308.622 57.824, 304.986 52.582, 293.742 41.113 C 280.038 27.134, 263.034 16.398, 248.500 12.546 C 241.145 10.597, 224.498 9.790, 216.814 11.010 M 281.103 60.432 C 280.127 64.791, 278.782 67.171, 274.885 71.435 C 260.346 87.344, 230.573 97.740, 207.688 94.898 C 198.477 93.755, 178.921 88.270, 166.882 83.453 C 157.749 79.799, 156 79.401, 156 80.980 C 156 83.496, 172.888 90.073, 189.500 94.027 C 220.928 101.508, 237.795 100.085, 260.790 88.011 C 276.924 79.540, 282.997 73.082, 283.787 63.555 C 284.030 60.627, 283.805 57.474, 283.288 56.550 C 282.553 55.237, 282.075 56.087, 281.103 60.432 M 260.500 95.227 C 254.592 98.383, 252.416 100.088, 252.180 101.750 C 251.745 104.818, 253.491 104.633, 260.859 100.833 C 272.160 95.005, 280.230 97.362, 287.873 108.723 C 289.805 111.596, 291.523 113.810, 291.690 113.643 C 292.301 113.032, 288.975 103.408, 287.101 100.366 C 283.969 95.281, 278.538 91.748, 273.208 91.326 C 269.188 91.008, 267.331 91.578, 260.500 95.227 M 119.031 100.417 C 117.133 104.524, 116.835 106.522, 117.221 112.540 C 117.619 118.751, 118.518 121.523, 123.729 132.623 C 131.179 148.492, 132.415 153.534, 131.754 165.381 C 131.188 175.519, 132.707 174.028, 133.670 163.500 C 134.436 155.118, 132.800 147.664, 127.090 133.530 C 121.048 118.573, 119.696 112.012, 121.096 104.440 C 122.611 96.246, 121.741 94.553, 119.031 100.417 M 244 121.738 C 244 122.306, 247.569 123.292, 251.931 123.930 C 269.542 126.505, 280.143 130.711, 305.590 145.223 C 313.791 149.899, 327.025 156.879, 335 160.734 C 359.830 172.735, 374.435 184.057, 380.121 195.714 C 383.454 202.545, 383.973 218.229, 381.247 229.717 C 379.096 238.783, 379.747 239.405, 383.544 231.914 C 390.192 218.793, 390.750 203.027, 384.979 191.306 C 378.403 177.949, 368.100 170.508, 335 155.211 C 324.275 150.255, 307.625 142.317, 298 137.572 C 288.375 132.827, 275.650 127.375, 269.722 125.457 C 258.731 121.901, 244 119.771, 244 121.738 M 153.343 145.548 C 152.425 147.941, 155.615 154, 157.793 154 C 158.796 154, 160.491 153.323, 161.559 152.496 C 163.448 151.032, 163.419 150.923, 160.500 148.446 C 155.616 144.302, 154.063 143.673, 153.343 145.548 M 216.326 149.044 C 208.204 150.650, 203 154.820, 203 159.723 C 203 162.431, 204.622 162.603, 209.782 160.444 C 213.433 158.917, 213.542 158.937, 215.817 161.578 C 218.421 164.601, 217.871 165.696, 213.509 166.173 C 208.527 166.718, 209.390 169.240, 215.451 171.854 C 220.507 174.034, 221.283 174.112, 225.955 172.915 C 228.792 172.188, 231 171.048, 231 170.311 C 231 169.590, 231.338 168.966, 231.750 168.923 C 236.269 168.462, 238.662 166.881, 237.554 165.087 C 237.184 164.489, 236.153 164, 235.261 164 C 234.243 164, 235.195 162.669, 237.820 160.422 C 242.889 156.084, 243.174 154.587, 238.750 155.545 C 235.503 156.249, 235.502 156.248, 237.386 154.146 C 239.544 151.739, 239.892 151.953, 229.936 149.571 C 222.760 147.853, 222.416 147.840, 216.326 149.044 M 162 162.965 C 162 164.141, 165.958 166.376, 166.709 165.624 C 167.005 165.328, 166.981 164.392, 166.655 163.543 C 166.015 161.876, 162 161.377, 162 162.965 M 183.499 182.413 C 180.043 189.475, 180.414 192.958, 184.857 195.176 C 186.703 196.098, 189.278 197.852, 190.578 199.073 C 192.893 201.248, 193.033 201.259, 197.348 199.611 C 199.772 198.685, 202.517 197.086, 203.449 196.056 C 205.086 194.247, 204.897 194.161, 197.822 193.503 C 193.795 193.129, 189.825 192.975, 189 193.161 C 187.740 193.446, 187.553 192.178, 187.832 185.250 C 188.037 180.150, 187.779 177, 187.156 177 C 186.601 177, 184.955 179.436, 183.499 182.413 M 334.582 178.867 C 334.241 179.418, 335.658 181.110, 337.731 182.626 C 349.347 191.120, 352.735 193.996, 358.646 200.380 C 365.644 207.939, 368.905 212.915, 372.710 221.842 L 375.121 227.500 374.675 220.745 C 374.060 211.418, 370.360 204.227, 361.951 196.017 C 358.280 192.432, 351.502 187.161, 346.889 184.303 C 337.128 178.256, 335.425 177.504, 334.582 178.867 M 184.269 202.850 C 182.070 203.491, 182.088 203.563, 185.519 207.891 C 187.433 210.306, 189 212.847, 189 213.537 C 189 214.228, 190.591 216.189, 192.535 217.896 C 196.610 221.474, 201.969 222.054, 206.027 219.356 C 209.361 217.140, 221 205.768, 221 204.727 C 221 204.270, 217.281 204.197, 212.736 204.566 C 206.576 205.066, 202.864 204.825, 198.155 203.618 C 191.595 201.938, 188.068 201.742, 184.269 202.850 M 195 213.500 C 195 214.325, 195.885 215, 196.969 215 C 198.308 215, 198.753 214.520, 198.362 213.500 C 198.045 212.675, 197.159 212, 196.393 212 C 195.627 212, 195 212.675, 195 213.500 M 142.799 222.878 C 131.843 235.064, 132.502 252.508, 144.148 258.568 C 147.677 260.404, 155.874 262.196, 157.147 261.409 C 157.706 261.064, 154.897 259.368, 150.906 257.641 C 144.587 254.906, 143.348 253.930, 141.324 250.093 C 137.354 242.564, 138.626 233.764, 145.031 224.454 C 149.555 217.879, 148.172 216.903, 142.799 222.878 M 183 276.326 C 183 279.977, 185.288 282.648, 190.806 285.438 C 194.308 287.209, 202.102 287.249, 202.668 285.500 C 202.845 284.950, 199.607 282.763, 195.471 280.640 C 191.336 278.516, 187.497 275.929, 186.941 274.890 C 185.259 271.746, 183 272.569, 183 276.326 M 316.880 300.645 C 315.967 301.744, 315.537 304.893, 315.581 310.144 L 315.646 317.998 313.073 316.287 C 307.789 312.772, 303.589 311.011, 302.673 311.927 C 302.115 312.485, 303.151 316.111, 305.317 321.173 C 307.276 325.753, 309.415 332.609, 310.070 336.410 C 312.423 350.062, 309.155 368.129, 301.533 383.617 C 291.206 404.597, 275.274 414.898, 254.821 413.819 C 244.375 413.269, 237.169 410.164, 229.502 402.914 C 221.430 395.279, 218.643 388.903, 218.189 377.033 C 217.504 359.124, 223.925 345.259, 241.124 327.504 C 247.106 321.330, 252 315.765, 252 315.139 C 252 311.259, 238.603 318.446, 229.891 327 C 218.454 338.230, 211 356.857, 211 374.209 C 211 395.592, 223.612 414.059, 242.250 419.967 C 245.846 421.106, 246 421.339, 246 425.617 C 246 431.549, 248.801 436.736, 255.023 442.331 C 262.544 449.093, 268.513 449.659, 279.459 444.647 C 282.423 443.291, 285.107 442.440, 285.424 442.757 C 286.768 444.102, 285.800 450.795, 283.734 454.431 C 282.505 456.593, 278.125 461.289, 274 464.865 C 269.875 468.442, 265.715 472.523, 264.757 473.934 C 261.122 479.284, 263.569 485.429, 268.450 483.205 C 272.460 481.378, 290.155 466.686, 296.157 460.200 C 305.071 450.568, 311.296 435.135, 314.969 413.564 C 316.005 407.479, 318.011 396.283, 319.427 388.683 C 320.842 381.084, 322 374.447, 322 373.933 C 322 373.420, 322.450 373, 323 373 C 323.550 373, 324 375.192, 324 377.871 C 324 380.550, 324.710 389.437, 325.579 397.621 C 327.454 415.299, 327.215 437.226, 325.125 439.201 C 324.037 440.229, 323.654 440.239, 323.292 439.250 C 322.077 435.936, 320.173 438.812, 317.665 447.750 C 313.976 460.896, 310.370 466.453, 298.200 477.739 C 287.208 487.934, 284.156 492.055, 286.289 493.825 C 286.969 494.389, 292.919 496.234, 299.512 497.925 C 306.106 499.616, 314.845 501.900, 318.932 503 C 326.626 505.070, 340.353 505.696, 342.887 504.091 C 344.409 503.127, 344.313 502.468, 340.964 491 C 338.976 484.190, 338.705 480.232, 338.012 448 C 337.370 418.074, 336.823 409.281, 334.532 392 C 332.740 378.490, 331.560 363.829, 331.071 349 L 330.328 326.500 326.758 317.500 C 324.795 312.550, 322.870 306.363, 322.481 303.750 C 321.717 298.623, 319.553 297.423, 316.880 300.645 M 253.500 354.400 C 247.123 357.211, 242 364.614, 242 371.018 C 242 377.330, 247.029 383.338, 253.500 384.753 C 261.467 386.496, 267.497 383.328, 271.110 375.500 C 273.481 370.363, 273.450 365.587, 271.010 360.212 C 268.076 353.747, 260.607 351.268, 253.500 354.400 M 253.667 366.667 C 253.300 367.033, 253 368.190, 253 369.236 C 253 370.638, 253.593 371.055, 255.250 370.820 C 258.189 370.402, 259.090 366, 256.236 366 C 255.190 366, 254.033 366.300, 253.667 366.667 M 136.661 377.823 C 134.883 379.786, 134.413 383, 135.902 383 C 136.810 383, 139.307 376.974, 138.665 376.332 C 138.476 376.143, 137.574 376.813, 136.661 377.823" stroke="none" fill="white" fill-rule="evenodd"/>
</svg>