<svg xmlns="http://www.w3.org/2000/svg" width="512" height="512" viewBox="0 0 512 512" version="1.1">
	<path d="M 233.547 15.538 C 224.427 18.040, 214.136 23.907, 206.906 30.728 C 192.436 44.378, 185.780 57.163, 177.583 87.049 C 176.746 90.100, 173.528 96.625, 170.432 101.549 C 162.638 113.942, 161.161 117.052, 158.938 125.741 C 155.026 141.038, 156.899 154.544, 166.009 176.741 C 173.194 194.245, 174.561 200.159, 173.050 207.204 C 171.061 216.476, 167.458 220.673, 155.299 227.878 C 149.554 231.283, 146.642 233.784, 144.241 237.376 C 138.453 246.037, 137.489 251.130, 137.590 272.500 C 137.679 291.359, 137.710 291.615, 141.732 307 C 144.407 317.233, 146.016 325.898, 146.467 332.500 C 146.842 338, 148.199 350.150, 149.481 359.500 C 153.594 389.483, 153.786 384.052, 147.573 413.471 C 144.117 429.834, 142.528 455.071, 143.708 474.876 C 144.730 492.042, 145.172 493.014, 151.941 492.985 C 158.561 492.956, 158.431 493.400, 159.173 468.287 C 159.857 445.131, 161.799 422.560, 164.662 404.500 C 167.170 388.679, 167.430 375.835, 165.523 361.888 C 164.592 355.075, 163.437 342.075, 162.958 333 C 162.215 318.953, 161.646 315.134, 159.126 307.314 C 154.692 293.552, 153.701 285.405, 154.204 266.857 C 154.696 248.740, 155.636 245.072, 161.301 239.162 C 169.038 231.091, 179.696 229.467, 206.144 232.330 C 214.040 233.185, 225.290 234.175, 231.145 234.531 C 237.083 234.892, 242.992 235.802, 244.509 236.589 C 247.961 238.380, 248 238.375, 248 236.089 C 248 233.155, 242.562 229.190, 237.745 228.611 C 235.410 228.331, 227.723 227.626, 220.661 227.046 C 205.470 225.796, 194 224.019, 194 222.916 C 194 222.480, 196.952 219.509, 200.560 216.312 C 214.624 203.852, 219.011 195.005, 217.078 183.003 C 216.512 179.491, 216.247 176.420, 216.488 176.179 C 216.729 175.938, 219.980 178.639, 223.713 182.182 C 232.427 190.452, 237.237 194.102, 243.750 197.386 C 248.969 200.018, 249 200.062, 249.007 204.767 C 249.015 210.282, 252.301 224.747, 254.520 229.038 C 255.950 231.805, 258 233.055, 258 231.161 C 258 229.973, 262.957 227.856, 264.094 228.558 C 264.613 228.879, 266.170 231.376, 267.554 234.107 C 272.246 243.365, 280.867 250.487, 291 253.477 C 295.595 254.832, 302.920 260.134, 305.123 263.700 C 306.878 266.538, 307.323 268.857, 307.402 275.564 C 307.523 285.869, 308.445 287.124, 313.565 283.960 C 318.761 280.748, 324.117 280.984, 331.500 284.751 C 342.643 290.436, 350.215 297.275, 343.500 295.589 C 340.437 294.821, 340.414 295.414, 343.310 300.500 C 345.365 304.109, 345.974 304.500, 349.544 304.500 L 353.500 304.500 353.800 310.831 C 354.027 315.639, 353.602 318.190, 352.033 321.431 C 348.245 329.257, 340.128 335.534, 331.334 337.437 C 324.059 339.011, 316.078 334.369, 307.904 323.810 C 301.452 315.474, 300.770 315.880, 304.081 326.085 C 306.250 332.769, 308.377 336.861, 314.452 346.039 C 322.290 357.881, 324.023 373.158, 319.041 386.500 C 312.271 404.630, 311.928 406.013, 311.009 418.868 C 310.504 425.942, 309.432 434.603, 308.627 438.115 C 307.823 441.627, 306.697 447.904, 306.124 452.064 C 305.552 456.224, 302.982 466.435, 300.412 474.754 C 297.843 483.074, 296.010 490.582, 296.339 491.440 C 297.257 493.833, 301.793 493.298, 304.627 490.463 C 308.390 486.701, 314.557 472.762, 317.696 460.926 C 320.166 451.614, 320.455 448.854, 320.402 435.095 C 320.339 419.032, 320.829 418.522, 323.528 431.842 C 324.758 437.909, 325.044 444.552, 324.806 461.458 L 324.500 483.252 319.539 487.616 C 313.050 493.323, 314.039 494.512, 324.460 493.536 C 335.645 492.488, 335.116 494.437, 333.980 458.481 C 332.958 426.094, 332.070 419.336, 326.887 404.500 L 323.744 395.500 326.544 387 C 329.046 379.407, 329.390 376.724, 329.771 361.862 L 330.197 345.224 334.153 344.591 C 348.663 342.271, 360.001 328.286, 359.999 312.712 C 359.998 304.447, 355.960 295.682, 349.951 290.903 C 337.383 280.907, 337.074 279.887, 342.440 266.152 C 349.048 249.243, 349.523 236.646, 343.979 225.334 C 341.862 221.013, 338.033 216.210, 331.191 209.291 C 319.347 197.314, 317.652 194.170, 318.163 185.126 C 318.608 177.250, 320.702 172.805, 329.059 162.003 C 332.300 157.813, 336.477 151.035, 338.340 146.942 C 346.840 128.265, 346.733 112.707, 337.986 95.500 C 335.386 90.385, 333.257 84.243, 332.083 78.469 C 328.897 62.805, 320.764 49.808, 306.637 37.802 C 295.574 28.400, 280.471 20.091, 274.326 20.024 C 273.130 20.011, 268.780 18.650, 264.659 17 C 258.108 14.377, 255.995 14.011, 247.833 14.089 C 242.700 14.139, 236.271 14.790, 233.547 15.538 M 284 35.765 C 284 36.224, 284.563 37.168, 285.250 37.862 C 286.251 38.873, 286.128 39.334, 284.629 40.180 C 282.908 41.150, 283.089 41.538, 286.879 45.002 C 289.221 47.143, 291 49.682, 291 50.884 C 291 53.488, 291.004 53.488, 284.882 50.854 C 281.972 49.602, 279.537 49.081, 279.039 49.604 C 278.553 50.114, 282.450 54.691, 288.093 60.238 C 293.542 65.593, 298 69.738, 298 69.448 C 298 69.158, 297.091 67.138, 295.980 64.960 C 293.328 59.763, 294.994 59.910, 299.266 65.250 C 303.971 71.133, 306.465 75.609, 308.457 81.750 C 309.394 84.638, 310.411 87, 310.716 87 C 311.022 87, 310.984 84.899, 310.632 82.331 C 309.796 76.233, 306.211 68.576, 301.653 63.155 C 297.431 58.134, 297.105 56.750, 300.250 57.187 C 302.139 57.450, 302.443 57.099, 302.146 55 C 301.563 50.894, 299.489 47.753, 293.820 42.391 C 288.322 37.191, 284 34.275, 284 35.765 M 251.124 76.629 C 249.603 84.883, 245.204 94.723, 239.886 101.767 C 237.650 104.729, 235.973 107.231, 236.160 107.327 C 252.645 115.734, 258 119.139, 258 121.211 C 258 122.195, 257.753 123, 257.450 123 C 256.216 123, 250.051 119.386, 242.695 114.349 C 235.096 109.147, 234.814 109.045, 232.018 110.491 C 230.439 111.307, 226.976 114.551, 224.323 117.699 C 221.671 120.847, 217.356 125.586, 214.735 128.229 L 209.969 133.036 211.509 143.768 C 214.196 162.489, 216.646 167.616, 228.138 178.557 C 243.595 193.274, 258.697 199.374, 267.800 194.577 C 273.746 191.444, 291.418 170.598, 295.424 161.993 C 297.363 157.828, 297.983 154.875, 297.990 149.775 L 298 143.050 294.750 143.632 L 291.500 144.214 295.250 140.658 C 297.313 138.702, 299 136.629, 299 136.051 C 299 134.747, 292.041 134.689, 290.005 135.976 C 288.723 136.786, 288.794 137.129, 290.503 138.379 C 293.035 140.230, 292.476 140.741, 286.962 141.618 C 282.878 142.267, 282.616 142.186, 283.872 140.664 C 285.091 139.187, 284.953 139, 282.644 139 C 280.246 139, 280.130 138.809, 281.160 136.548 C 281.774 135.200, 283.902 133.373, 285.889 132.489 C 287.875 131.606, 291.718 129.789, 294.429 128.453 C 299.507 125.950, 301.148 125.912, 299.130 128.343 C 298.238 129.418, 298.341 130.039, 299.584 131.070 C 300.956 132.208, 301.364 132.117, 302.347 130.453 C 304.302 127.142, 304.927 124.012, 303.664 123.860 C 299.069 123.308, 294.230 124.436, 291.945 126.590 C 289.343 129.044, 287 129.747, 287 128.073 C 287 127.562, 288.176 126.220, 289.613 125.089 C 291.095 123.924, 291.991 122.420, 291.683 121.617 C 291.384 120.837, 288.632 118.535, 285.568 116.501 C 278.429 111.763, 272.660 105.193, 268.444 97 C 266.604 93.425, 265.076 91.112, 265.049 91.860 C 264.970 94.040, 270.562 103.824, 277.024 112.814 C 280.311 117.387, 283 121.550, 283 122.064 C 283 125.439, 273.761 118.044, 267.311 109.507 C 258.839 98.292, 254 85.787, 254 75.106 C 254 72.298, 253.628 70, 253.173 70 C 252.718 70, 251.796 72.983, 251.124 76.629 M 220.479 88.107 C 209.027 99.297, 206.229 104.142, 215.954 95.942 C 222.081 90.775, 233.449 78.115, 232.664 77.331 C 232.350 77.016, 226.866 81.865, 220.479 88.107 M 208.136 86.610 C 204.165 92.243, 204.616 93.562, 208.712 88.296 C 212.541 83.373, 213.313 82, 212.252 82 C 211.775 82, 209.923 84.074, 208.136 86.610 M 230.898 94.395 C 229.579 96.283, 226.749 99.903, 224.609 102.439 C 222.469 104.976, 220.969 107.303, 221.277 107.611 C 222.173 108.506, 229.986 99.948, 232.157 95.693 C 234.704 90.700, 233.992 89.966, 230.898 94.395 M 273.519 96.750 C 275.517 101.596, 281.133 109.795, 284.979 113.480 C 288.391 116.749, 289.004 115.797, 285.934 112 C 282.062 107.214, 274 95.083, 274 94.045 C 274 93.470, 273.544 93, 272.987 93 C 272.397 93, 272.619 94.567, 273.519 96.750 M 216 102.968 C 210.008 108.356, 210.230 109.908, 216.279 104.922 C 219.358 102.384, 222.876 97.969, 221.785 98.011 C 221.628 98.017, 219.025 100.248, 216 102.968 M 332 102.724 C 332 103.357, 332.670 106.765, 333.489 110.296 C 334.308 113.827, 335.353 119.818, 335.812 123.608 L 336.646 130.500 337.486 125.500 C 338.476 119.615, 335.999 105.570, 333.537 103.109 C 332.600 102.171, 332 102.021, 332 102.724 M 319.624 109.500 C 319.973 111.150, 320.572 115.200, 320.953 118.500 C 321.434 122.656, 321.889 123.958, 322.435 122.738 C 323.420 120.536, 322.353 113.473, 320.436 109.500 L 318.989 106.500 319.624 109.500 M 314.272 113 C 314.272 115.475, 314.467 116.487, 314.706 115.250 C 314.944 114.013, 314.944 111.987, 314.706 110.750 C 314.467 109.513, 314.272 110.525, 314.272 113 M 188.465 113.208 C 186.934 115.018, 184.290 119.425, 182.590 123 C 179.644 129.198, 179.501 130.081, 179.517 142 C 179.534 153.977, 179.695 154.939, 183.366 165 C 188.997 180.435, 190.177 186.143, 189.816 196.223 C 189.558 203.431, 189.727 204.738, 190.737 203.351 C 194.606 198.040, 193.561 184.254, 188.172 169.500 C 182.477 153.909, 181.710 150.580, 181.609 141 C 181.501 130.771, 183.549 123.358, 188.524 115.964 C 192.586 109.928, 192.553 108.374, 188.465 113.208 M 313.195 120.500 C 313.215 122.150, 313.439 122.704, 313.693 121.731 C 313.947 120.758, 313.930 119.408, 313.656 118.731 C 313.382 118.054, 313.175 118.850, 313.195 120.500 M 235 120.933 C 235 122.690, 234.363 123.008, 230.750 123.052 C 226.595 123.104, 226.550 123.140, 228.750 124.674 C 231.942 126.901, 231.573 128.365, 228 127.650 C 226.350 127.320, 225 127.410, 225 127.851 C 225 129.587, 229.771 133, 232.198 133 C 233.851 133, 234.938 133.656, 235.248 134.840 C 235.624 136.278, 236.740 136.694, 240.364 136.749 C 245.189 136.822, 246.984 134.752, 243 133.710 C 241.900 133.423, 241 132.567, 241 131.808 C 241 130.454, 241.715 130.245, 248.250 129.687 C 250.415 129.502, 251.396 128.945, 251.188 128.020 C 250.815 126.355, 247.993 124.076, 246.250 124.032 C 245.563 124.014, 245 123.605, 245 123.121 C 245 122.269, 241.851 120.797, 237.250 119.500 C 235.438 118.989, 235 119.267, 235 120.933 M 236.991 123.489 C 237.671 124.308, 238.633 124.727, 239.130 124.420 C 240.406 123.631, 239.185 122, 237.319 122 C 236.047 122, 235.986 122.278, 236.991 123.489 M 191.667 146.667 C 190.671 147.662, 190.861 153.251, 192.083 158.951 C 192.951 163.001, 193.567 164, 195.194 164 C 196.987 164, 197.147 163.564, 196.574 160.250 C 194.215 146.600, 193.557 144.777, 191.667 146.667 M 312.036 160.950 C 308.731 165.590, 304.807 174.825, 305.321 176.750 C 305.709 178.205, 305.914 178.104, 306.536 176.154 C 306.947 174.864, 309.003 170.251, 311.106 165.904 C 313.208 161.557, 314.750 158, 314.532 158 C 314.314 158, 313.191 159.327, 312.036 160.950 M 317.500 166 C 315.456 169.365, 314.016 172.350, 314.300 172.634 C 314.584 172.917, 316.452 170.360, 318.450 166.950 C 320.448 163.540, 321.888 160.555, 321.650 160.316 C 321.411 160.078, 319.544 162.635, 317.500 166 M 264.170 165.170 C 264.390 166.723, 265.167 167.500, 266.500 167.500 C 269.478 167.500, 269.181 163.596, 266.170 163.170 C 264.231 162.895, 263.895 163.231, 264.170 165.170 M 253.500 172.727 C 248.204 173.481, 248.285 174.713, 254.008 180.508 C 258.563 185.121, 260.002 186, 262.993 186 C 264.952 186, 267.547 185.305, 268.760 184.456 C 271.212 182.738, 277 174.740, 277 173.070 C 277 172.018, 260.199 171.773, 253.500 172.727 M 257.003 177.152 C 256.996 178.727, 263.067 179.873, 266 178.850 C 270.577 177.255, 269.614 176.500, 263.003 176.500 C 259.705 176.500, 257.004 176.793, 257.003 177.152 M 298.052 203.290 C 297.924 205.219, 302.380 212.277, 308.943 220.540 C 312.858 225.468, 317.269 231.953, 318.746 234.950 C 321.800 241.150, 322.752 249.899, 321.144 257 C 320.232 261.026, 320.277 261.294, 321.572 259.546 C 324.810 255.174, 325.906 245.801, 323.987 238.894 C 322.626 233.993, 316.721 225.119, 308.412 215.486 C 304.611 211.079, 300.736 206.354, 299.802 204.986 C 298.869 203.619, 298.081 202.855, 298.052 203.290 M 287 217.599 C 287 223.167, 289.396 227.019, 298.194 235.591 C 302.658 239.941, 307.590 245.501, 309.155 247.946 C 310.802 250.520, 312 251.664, 312 250.664 C 312 246.726, 308.559 241.304, 300.976 233.293 C 293.269 225.152, 289 218.823, 289 215.540 C 289 214.693, 288.550 214, 288 214 C 287.450 214, 287 215.619, 287 217.599 M 321 222.344 C 321 222.757, 322.913 226.561, 325.250 230.797 C 329.339 238.208, 329.500 238.832, 329.500 247.246 C 329.500 252.056, 329.827 255.994, 330.227 255.996 C 330.627 255.998, 331.736 254.806, 332.693 253.346 C 335.297 249.372, 334.858 241.274, 331.687 234.794 C 329.413 230.145, 321 220.345, 321 222.344 M 187.424 280.084 C 184.832 282.948, 183.626 306.398, 183.913 348.345 C 184.104 376.293, 184.371 381.126, 186.098 387.845 C 187.845 394.644, 187.988 397.437, 187.380 412.819 L 186.695 430.139 181.312 437.319 C 174.567 446.317, 166.727 462.114, 163.983 472.237 C 161.549 481.215, 161.186 489.647, 163.153 491.513 C 164.080 492.392, 169.026 492.902, 179 493.145 C 192.916 493.486, 193.500 493.420, 193.500 491.515 C 193.500 490.129, 192.062 488.847, 188.738 487.269 C 182.329 484.226, 179.718 480.014, 180.388 473.799 C 181.527 463.226, 191.949 446.562, 208.200 429.330 C 217.657 419.303, 222.485 412.929, 226.627 405 C 229.212 400.051, 229.497 398.548, 229.473 390 C 229.437 377.242, 227.333 370.870, 215.071 346.368 C 203.890 324.029, 202 318.082, 202 305.246 L 202 296.282 198.155 291.891 C 193.058 286.071, 191.824 283.551, 192.584 280.521 C 193.099 278.471, 192.852 278, 191.263 278 C 190.189 278, 188.461 278.938, 187.424 280.084 M 274.008 291.824 C 280.162 303.853, 282.525 313.687, 280.953 320.729 C 278.770 330.504, 272.273 338.117, 262.046 342.881 C 254.609 346.346, 242.015 346.494, 234.668 343.204 C 225.033 338.889, 218.220 330.826, 214.860 319.763 C 212.710 312.686, 210.541 310.995, 209.407 315.513 C 207.561 322.871, 212.292 336.041, 219.630 343.967 C 226.046 350.897, 231.339 353.718, 240.643 355.167 C 259.963 358.175, 278.181 347.883, 285.191 330 C 289.508 318.988, 287.352 303.458, 279.893 291.833 C 276.817 287.040, 271.702 282, 269.914 282 C 269.401 282, 271.243 286.421, 274.008 291.824 M 245.750 296.080 C 243.512 297.384, 243.402 303.942, 245.549 308.094 C 248.183 313.189, 256.031 316.618, 259.600 314.235 C 261.298 313.101, 263 309.382, 262.996 306.816 C 262.984 299.119, 252.131 292.363, 245.750 296.080 M 252.057 305.107 C 252.824 306.540, 253.512 306.888, 254.206 306.194 C 255.473 304.927, 254.387 303, 252.406 303 C 251.214 303, 251.147 303.407, 252.057 305.107 M 189.363 341 C 189.691 342.925, 190.420 351.925, 190.983 361 C 191.546 370.075, 192.752 382.404, 193.662 388.399 C 195.109 397.921, 195.154 400.671, 194.023 410.180 C 193.312 416.165, 193.005 421.338, 193.342 421.675 C 194.328 422.661, 206.390 409.789, 208.537 405.459 C 211.311 399.863, 211.073 387.274, 207.979 376 C 205.651 367.518, 193.527 342.026, 190.411 339.063 C 188.898 337.624, 188.814 337.778, 189.363 341 M 286.603 379.646 C 286.217 386.716, 285.015 396.775, 283.930 402 C 282.158 410.537, 282.069 412.767, 283.056 424 C 283.660 430.875, 284.498 438.750, 284.917 441.500 C 285.671 446.444, 285.693 446.468, 286.840 443.685 C 287.523 442.027, 288.007 435.242, 288.017 427.185 C 288.030 416.833, 288.513 411.673, 290 406 C 292.332 397.101, 292.618 382.908, 290.615 375.388 C 287.955 365.399, 287.344 366.047, 286.603 379.646 M 172 397.411 C 172 397.637, 172.962 400.337, 174.139 403.411 C 176.417 409.364, 178 410.617, 178 406.468 C 178 402.697, 175.323 397, 173.551 397 C 172.698 397, 172 397.185, 172 397.411 M 227.693 412.750 C 227.460 413.163, 225.855 417.775, 224.127 423 C 222.399 428.225, 218.945 436.071, 216.452 440.436 C 209.673 452.304, 208.659 456.228, 209.204 468.483 C 209.612 477.659, 210.046 479.651, 212.894 485.436 C 216.335 492.425, 217.848 493.422, 224.112 492.824 C 228.570 492.398, 228.759 490.651, 225.547 479.564 C 222.025 467.413, 222.190 462.558, 226.408 454.182 C 231.975 443.128, 234.365 433.898, 233.704 426.011 C 232.918 416.635, 229.617 409.352, 227.693 412.750" stroke="none" fill="white" fill-rule="evenodd"/>
</svg>